{
    "asset" : {
        "generator" : "Khronos glTF Blender I/O v1.4.40",
        "version" : "2.0"
    },
    "scene" : 0,
    "scenes" : [
        {
            "name" : "Scene",
            "nodes" : [
                0,
                1
            ]
        }
    ],
    "nodes" : [
        {
            "name" : "Camera",
            "rotation" : [
                0.483536034822464,
                0.33687159419059753,
                -0.20870360732078552,
                0.7804827094078064
            ],
            "translation" : [
                7.358891487121582,
                4.958309173583984,
                6.925790786743164
            ]
        },
        {
            "mesh" : 0,
            "name" : "\u5706\u73af"
        }
    ],
    "materials" : [
        {
            "doubleSided" : true,
            "emissiveFactor" : [
                0.2004999816417694,
                0.2004999816417694,
                0.2004999816417694
            ],
            "name" : "\u6750\u8d28",
            "pbrMetallicRoughness" : {
                "baseColorFactor" : [
                    0.8000000715255737,
                    0.48865842819213867,
                    0.010802306234836578,
                    1
                ],
                "roughnessFactor" : 0.040692634880542755
            }
        }
    ],
    "meshes" : [
        {
            "name" : "\u5706\u73af",
            "primitives" : [
                {
                    "attributes" : {
                        "POSITION" : 0,
                        "NORMAL" : 1,
                        "TEXCOORD_0" : 2
                    },
                    "indices" : 3,
                    "material" : 0
                }
            ]
        }
    ],
    "accessors" : [
        {
            "bufferView" : 0,
            "componentType" : 5126,
            "count" : 5666,
            "max" : [
                0.9935951828956604,
                0.2906598746776581,
                0.9935951828956604
            ],
            "min" : [
                -0.9935951828956604,
                0.0030595771968364716,
                -0.9935952425003052
            ],
            "type" : "VEC3"
        },
        {
            "bufferView" : 1,
            "componentType" : 5126,
            "count" : 5666,
            "type" : "VEC3"
        },
        {
            "bufferView" : 2,
            "componentType" : 5126,
            "count" : 5666,
            "type" : "VEC2"
        },
        {
            "bufferView" : 3,
            "componentType" : 5123,
            "count" : 30720,
            "type" : "SCALAR"
        }
    ],
    "bufferViews" : [
        {
            "buffer" : 0,
            "byteLength" : 67992,
            "byteOffset" : 0
        },
        {
            "buffer" : 0,
            "byteLength" : 67992,
            "byteOffset" : 67992
        },
        {
            "buffer" : 0,
            "byteLength" : 45328,
            "byteOffset" : 135984
        },
        {
            "buffer" : 0,
            "byteLength" : 61440,
            "byteOffset" : 181312
        }
    ],
    "buffers" : [
        {
            "byteLength" : 242752,
            "uri" : "ring1.bin"
        }
    ]
}
