{
    "asset" : {
        "generator" : "Khronos glTF Blender I/O v1.4.40",
        "version" : "2.0"
    },
    "scene" : 0,
    "scenes" : [
        {
            "name" : "Scene",
            "nodes" : [
                0,
                1,
                2
            ]
        }
    ],
    "nodes" : [
        {
            "name" : "Camera",
            "rotation" : [
                0.6636594533920288,
                0.0019055797019973397,
                -0.0016907169483602047,
                0.7480306029319763
            ],
            "translation" : [
                -0.11607213318347931,
                1.4509328603744507,
                -2.8180484771728516
            ]
        },
        {
            "mesh" : 0,
            "name" : "\u7403\u4f53",
            "translation" : [
                0,
                0,
                -18.396448135375977
            ]
        },
        {
            "mesh" : 1,
            "name" : "\u5e73\u9762",
            "scale" : [
                0.5721376538276672,
                0.5721376538276672,
                0.5721376538276672
            ]
        }
    ],
    "materials" : [
        {
            "doubleSided" : true,
            "emissiveFactor" : [
                1,
                1,
                0.204759470130087
            ],
            "name" : "\u6750\u8d28.002",
            "pbrMetallicRoughness" : {
                "baseColorFactor" : [
                    0.800000011920929,
                    0.800000011920929,
                    0.800000011920929,
                    1
                ],
                "metallicFactor" : 0,
                "roughnessFactor" : 0
            }
        },
        {
            "doubleSided" : true,
            "name" : "\u6750\u8d28.001",
            "pbrMetallicRoughness" : {
                "metallicFactor" : 0,
                "roughnessFactor" : 0
            }
        }
    ],
    "meshes" : [
        {
            "name" : "\u7403\u4f53",
            "primitives" : [
                {
                    "attributes" : {
                        "POSITION" : 0,
                        "NORMAL" : 1,
                        "TEXCOORD_0" : 2
                    },
                    "indices" : 3,
                    "material" : 0
                }
            ]
        },
        {
            "name" : "\u5e73\u9762",
            "primitives" : [
                {
                    "attributes" : {
                        "POSITION" : 4,
                        "NORMAL" : 5,
                        "TEXCOORD_0" : 6
                    },
                    "indices" : 7,
                    "material" : 1
                }
            ]
        }
    ],
    "accessors" : [
        {
            "bufferView" : 0,
            "componentType" : 5126,
            "count" : 2077,
            "max" : [
                1.000000238418579,
                1,
                1.0000003576278687
            ],
            "min" : [
                -0.9999998211860657,
                -1,
                -1
            ],
            "type" : "VEC3"
        },
        {
            "bufferView" : 1,
            "componentType" : 5126,
            "count" : 2077,
            "type" : "VEC3"
        },
        {
            "bufferView" : 2,
            "componentType" : 5126,
            "count" : 2077,
            "type" : "VEC2"
        },
        {
            "bufferView" : 3,
            "componentType" : 5123,
            "count" : 11520,
            "type" : "SCALAR"
        },
        {
            "bufferView" : 4,
            "componentType" : 5126,
            "count" : 2500,
            "max" : [
                25.164154052734375,
                0.864685595035553,
                25.453479766845703
            ],
            "min" : [
                -25.164154052734375,
                -0.8680357336997986,
                -25.453479766845703
            ],
            "type" : "VEC3"
        },
        {
            "bufferView" : 5,
            "componentType" : 5126,
            "count" : 2500,
            "type" : "VEC3"
        },
        {
            "bufferView" : 6,
            "componentType" : 5126,
            "count" : 2500,
            "type" : "VEC2"
        },
        {
            "bufferView" : 7,
            "componentType" : 5123,
            "count" : 14406,
            "type" : "SCALAR"
        }
    ],
    "bufferViews" : [
        {
            "buffer" : 0,
            "byteLength" : 24924,
            "byteOffset" : 0
        },
        {
            "buffer" : 0,
            "byteLength" : 24924,
            "byteOffset" : 24924
        },
        {
            "buffer" : 0,
            "byteLength" : 16616,
            "byteOffset" : 49848
        },
        {
            "buffer" : 0,
            "byteLength" : 23040,
            "byteOffset" : 66464
        },
        {
            "buffer" : 0,
            "byteLength" : 30000,
            "byteOffset" : 89504
        },
        {
            "buffer" : 0,
            "byteLength" : 30000,
            "byteOffset" : 119504
        },
        {
            "buffer" : 0,
            "byteLength" : 20000,
            "byteOffset" : 149504
        },
        {
            "buffer" : 0,
            "byteLength" : 28812,
            "byteOffset" : 169504
        }
    ],
    "buffers" : [
        {
            "byteLength" : 198316,
            "uri" : "sun.bin"
        }
    ]
}
